HIERARCHY
ROOT Hips
{
	OFFSET 47.529202 4.595086 84.272697
	CHANNELS 6 Xposition Yposition Zposition Xrotation Yrotation Zrotation
	JOINT spine
	{
		OFFSET 0.000000 -0.359108 6.244797
		CHANNELS 3 Xrotation Yrotation Zrotation
		JOINT spine1
		{
			OFFSET 0.000000 -0.000001 9.069412
			CHANNELS 3 Xrotation Yrotation Zrotation
			JOINT spine2
			{
				OFFSET 0.000000 -0.000001 8.690140
				CHANNELS 3 Xrotation Yrotation Zrotation
				JOINT Neck
				{
					OFFSET 0.000000 -1.063724 22.311195
					CHANNELS 3 Xrotation Yrotation Zrotation
					JOINT Head
					{
						OFFSET 0.000000 -0.000001 6.740814
						CHANNELS 3 Xrotation Yrotation Zrotation
						End Site
						{
							OFFSET 0.000000 5.380967 16.316498
						}
					}
				}
				JOINT RightShoulder
				{
					OFFSET -3.659161 0.509512 9.384682
					CHANNELS 3 Xrotation Yrotation Zrotation
					JOINT RightArm
					{
						OFFSET 0.000000 -0.000002 12.308899
						CHANNELS 3 Xrotation Yrotation Zrotation
						JOINT RightArmRoll
						{
							OFFSET 0.000000 -0.000001 6.213745
							CHANNELS 3 Xrotation Yrotation Zrotation
							JOINT RightForeArm
							{
								OFFSET 0.000000 -0.000003 18.098495
								CHANNELS 3 Xrotation Yrotation Zrotation
								JOINT RightForeArmRoll
								{
									OFFSET 0.000000 -0.000001 6.972794
									CHANNELS 3 Xrotation Yrotation Zrotation
									JOINT RightHand
									{
										OFFSET 0.000000 -0.000002 13.992905
										CHANNELS 3 Xrotation Yrotation Zrotation
										End Site
										{
											OFFSET 0.000000 0.000000 0.100006
										}
									}
								}
							}
						}
					}
				}
				JOINT LeftShoulder
				{
					OFFSET 3.659161 0.509512 9.384682
					CHANNELS 3 Xrotation Yrotation Zrotation
					JOINT LeftArm
					{
						OFFSET 0.000000 -0.000002 12.308899
						CHANNELS 3 Xrotation Yrotation Zrotation
						JOINT LeftArmRoll
						{
							OFFSET 0.000000 -0.000001 6.213745
							CHANNELS 3 Xrotation Yrotation Zrotation
							JOINT LeftForeArm
							{
								OFFSET 0.000000 -0.000003 18.098495
								CHANNELS 3 Xrotation Yrotation Zrotation
								JOINT LeftForeArmRoll
								{
									OFFSET 0.000000 -0.000001 6.972794
									CHANNELS 3 Xrotation Yrotation Zrotation
									JOINT LeftHand
									{
										OFFSET 0.000000 -0.000002 13.992905
										CHANNELS 3 Xrotation Yrotation Zrotation
										End Site
										{
											OFFSET 0.000000 0.000000 0.100006
										}
									}
								}
							}
						}
					}
				}
			}
		}
	}
	JOINT RightUpLeg
	{
		OFFSET -5.535160 0.851455 -1.014999
		CHANNELS 3 Xrotation Yrotation Zrotation
		JOINT RightUpLegRoll
		{
			OFFSET 0.000000 -0.000003 16.407501
			CHANNELS 3 Xrotation Yrotation Zrotation
			JOINT RightLeg
			{
				OFFSET 0.000000 0.000003 -20.318100
				CHANNELS 3 Xrotation Yrotation Zrotation
				JOINT RightLegRoll
				{
					OFFSET 0.000000 -0.000003 20.384598
					CHANNELS 3 Xrotation Yrotation Zrotation
					JOINT RightFoot
					{
						OFFSET 0.000000 -0.000003 16.966805
						CHANNELS 3 Xrotation Yrotation Zrotation
						JOINT RightToeBase
						{
							OFFSET 0.000000 -0.000002 14.183395
							CHANNELS 3 Xrotation Yrotation Zrotation
							End Site
							{
								OFFSET 0.006012 0.791745 6.868896
							}
						}
					}
				}
			}
		}
	}
	JOINT LeftUpLeg
	{
		OFFSET 5.535160 0.851455 -1.014999
		CHANNELS 3 Xrotation Yrotation Zrotation
		JOINT LeftUpLegRoll
		{
			OFFSET 0.000000 -0.000003 16.407600
			CHANNELS 3 Xrotation Yrotation Zrotation
			JOINT LeftLeg
			{
				OFFSET 0.000000 -0.000003 20.318100
				CHANNELS 3 Xrotation Yrotation Zrotation
				JOINT LeftLegRoll
				{
					OFFSET 0.000000 -0.000003 20.573105
					CHANNELS 3 Xrotation Yrotation Zrotation
					JOINT LeftFoot
					{
						OFFSET 0.000000 -0.000003 16.778305
						CHANNELS 3 Xrotation Yrotation Zrotation
						JOINT LeftToeBase
						{
							OFFSET 0.000000 -0.000002 14.183395
							CHANNELS 3 Xrotation Yrotation Zrotation
							End Site
							{
								OFFSET -0.026943 0.791745 6.868896
							}
						}
					}
				}
			}
		}
	}
}
MOTION
Frames: 13
Frame Time: 0.041667
45.452202 7.130646 83.945396 2.145737 0.338150 -3.104940 -1.277311 0.062039 -0.012395 1.447913 0.113753 -0.024886 3.092976 0.113886 -0.026376 3.182418 -1.382425 -0.903093 2.690736 -3.581787 -0.254465 -5.498152 -64.456563 -6.914149 -22.208447 -113.733728 -13.676798 0.000000 0.000003 -0.000004 15.236335 -10.529548 0.755236 0.000007 0.000001 -3.000000 -5.000199 -7.998753 0.000163 -16.381466 60.109961 19.358834 -12.267715 116.808078 -2.956470 -0.000000 0.000000 0.000000 18.186144 3.172151 0.016779 -0.000001 -0.000002 2.999992 -5.000222 7.999711 -0.000055 -8.824589 -178.633352 -0.293611 -179.999991 0.000005 -0.946994 167.112463 -1.738118 -1.055611 -0.000008 -0.000003 0.208133 70.536620 6.517027 3.025062 25.456919 -7.351623 -0.000004 -2.835005 176.086785 -4.502606 -0.000005 -0.000004 -1.020170 -13.641893 4.214318 1.166511 0.000001 0.000001 -0.244402 75.314133 -6.724119 -2.140282 27.190923 7.342826 -0.238059 
45.448002 7.124076 83.943512 2.155209 0.343693 -3.098805 -1.275295 0.061074 -0.011039 1.451623 0.113899 -0.023086 3.096686 0.114028 -0.024567 3.154676 -1.387685 -0.905977 2.688522 -3.552705 -0.258688 -5.516239 -64.460689 -6.935235 -22.287116 -113.750865 -13.839742 0.000000 0.000003 -0.000003 15.296217 -10.579604 0.769450 0.000008 0.000001 -3.000001 -5.000200 -7.998753 0.000162 -16.366662 60.100808 19.341260 -12.330844 116.823760 -2.869492 -0.000000 0.000000 0.000000 18.228463 3.180314 0.015173 -0.000002 -0.000002 2.999988 -5.000226 7.999711 -0.000060 -8.864097 -178.649321 -0.300373 -179.999991 0.000005 -0.945996 167.056906 -1.742605 -1.057419 -0.000007 -0.000003 0.210085 70.563798 6.522268 3.010170 25.456921 -7.351625 -0.000004 -2.873419 176.097904 -4.466185 -0.000005 -0.000004 -1.019860 -13.699595 4.177126 1.166648 0.000003 0.000001 -0.247244 75.358864 -6.721778 -2.143509 27.160305 7.342755 -0.248310 
45.480301 7.079906 83.905296 2.164070 0.349420 -3.092775 -1.273191 0.060098 -0.009632 1.455473 0.114129 -0.021210 3.100546 0.114254 -0.022683 3.128087 -1.393851 -0.909065 2.685198 -3.523118 -0.263032 -5.533984 -64.466235 -6.956055 -22.367148 -113.766151 -14.005755 0.000000 0.000003 -0.000004 15.357137 -10.631212 0.784179 0.000009 0.000001 -3.000000 -5.000203 -7.998754 0.000161 -16.349992 60.091171 19.321473 -12.392376 116.840358 -2.784347 -0.000000 0.000000 -0.000000 18.271289 3.188365 0.013595 0.000001 -0.000002 2.999988 -5.000221 7.999711 -0.000057 -8.903670 -178.666260 -0.306452 -179.999991 0.000005 -0.944999 167.000325 -1.748052 -1.059475 -0.000008 -0.000003 0.212076 70.591166 6.527748 2.994705 25.456924 -7.351623 -0.000004 -2.911028 176.108013 -4.429532 -0.000005 -0.000004 -1.019560 -13.757091 4.139572 1.166605 0.000002 0.000001 -0.250077 75.404250 -6.719410 -2.146694 27.128975 7.342698 -0.258547 
45.471500 7.097957 83.914207 2.172501 0.355276 -3.086827 -1.271022 0.059113 -0.008188 1.459433 0.114418 -0.019282 3.104496 0.114540 -0.020749 3.102309 -1.400645 -0.912300 2.681102 -3.493171 -0.267457 -5.551461 -64.472806 -6.976636 -22.446874 -113.781451 -14.172565 0.000000 0.000003 -0.000003 15.418749 -10.683714 0.799260 0.000008 0.000000 -3.000000 -5.000202 -7.998753 0.000163 -16.332034 60.081192 19.300158 -12.453477 116.855917 -2.699501 -0.000000 0.000000 -0.000001 18.314409 3.196349 0.012018 -0.000001 -0.000002 2.999989 -5.000221 7.999712 -0.000057 -8.943323 -178.683199 -0.312157 -179.999991 0.000005 -0.943988 166.943265 -1.754476 -1.061802 -0.000008 -0.000003 0.214094 70.618706 6.533394 2.978755 25.456923 -7.351624 -0.000004 -2.948085 176.119133 -4.392811 -0.000005 -0.000005 -1.019260 -13.814481 4.101782 1.166420 0.000002 0.000001 -0.252903 75.449985 -6.717030 -2.150063 27.097240 7.342648 -0.268795 
45.467098 7.082047 83.912201 2.180684 0.361207 -3.080914 -1.268830 0.058124 -0.006724 1.463443 0.114742 -0.017325 3.108506 0.114860 -0.018784 3.076989 -1.407798 -0.915621 2.676564 -3.463028 -0.271927 -5.568793 -64.479759 -6.997092 -22.528144 -113.794920 -14.341705 0.000000 0.000003 -0.000003 15.480832 -10.736823 0.814630 0.000009 0.000001 -3.000001 -5.000199 -7.998753 0.000162 -16.313319 60.070995 19.277949 -12.513672 116.872460 -2.615778 -0.000000 0.000000 -0.000000 18.357728 3.204294 0.010447 0.000003 -0.000002 2.999990 -5.000224 7.999711 -0.000058 -8.983012 -178.700138 -0.317637 -179.999991 0.000005 -0.942991 166.885892 -1.760880 -1.063150 -0.000008 -0.000003 0.216128 70.646381 6.539111 2.962408 25.456921 -7.351624 -0.000005 -2.984831 176.130252 -4.356026 -0.000005 -0.000005 -1.018970 -13.871870 4.063841 1.166121 0.000002 0.000001 -0.255725 75.496048 -6.714592 -2.153503 27.065210 7.342624 -0.279031 
45.459000 7.088507 83.886101 2.188814 0.367158 -3.075023 -1.266634 0.057134 -0.005255 1.467463 0.115072 -0.015361 3.112536 0.115188 -0.016813 3.051783 -1.415041 -0.918968 2.671917 -3.432823 -0.276405 -5.586107 -64.486937 -7.017545 -22.608418 -113.809359 -14.509928 0.000000 0.000003 -0.000004 15.543060 -10.789983 0.830140 0.000007 0.000001 -3.000000 -5.000202 -7.998752 0.000162 -16.294412 60.060722 19.255528 -12.573695 116.888989 -2.532222 -0.000000 0.000000 -0.000001 18.401056 3.212222 0.008874 -0.000000 -0.000002 2.999989 -5.000220 7.999712 -0.000059 -9.022704 -178.717077 -0.323046 -179.999991 0.000005 -0.941994 166.828299 -1.768262 -1.064735 -0.000008 -0.000003 0.218166 70.673982 6.544887 2.946072 25.456919 -7.351624 -0.000005 -3.021499 176.141358 -4.319230 -0.000005 -0.000005 -1.018670 -13.929159 4.025868 1.165730 0.000002 0.000001 -0.258546 75.542138 -6.712187 -2.156850 27.033084 7.342609 -0.289269 
45.463001 7.106269 83.888802 2.197056 0.373074 -3.069113 -1.264441 0.056147 -0.003796 1.471463 0.115388 -0.013412 3.116536 0.115499 -0.014855 3.026344 -1.422104 -0.922282 2.667485 -3.402727 -0.280854 -5.603506 -64.493795 -7.038073 -22.687716 -113.824747 -14.676823 0.000000 0.000003 -0.000003 15.605111 -10.842914 0.845717 0.000008 0.000001 -3.000000 -5.000199 -7.998753 0.000163 -16.275928 60.050593 19.233596 -12.633891 116.905586 -2.448420 -0.000000 0.000000 -0.000000 18.444279 3.220178 0.007279 -0.000000 -0.000002 2.999988 -5.000223 7.999712 -0.000057 -9.062385 -178.733005 -0.328692 -179.999991 0.000005 -0.940996 166.770939 -1.774656 -1.067107 -0.000008 -0.000003 0.220196 70.701563 6.550562 2.929918 25.456926 -7.351623 -0.000005 -3.058319 176.152477 -4.282487 -0.000005 -0.000005 -1.018370 -13.986552 3.987975 1.165291 0.000002 0.000001 -0.261369 75.588057 -6.709797 -2.160312 27.001054 7.342613 -0.299504 
45.455898 7.100703 83.908997 2.205619 0.378901 -3.063143 -1.262291 0.055165 -0.002363 1.475393 0.115661 -0.011499 3.120456 0.115769 -0.012935 3.000335 -1.428710 -0.925504 2.663617 -3.372890 -0.285237 -5.621093 -64.500051 -7.058757 -22.767025 -113.840204 -14.842973 0.000000 0.000003 -0.000003 15.666647 -10.895058 0.861176 0.000007 0.000001 -3.000001 -5.000201 -7.998754 0.000161 -16.258362 60.040662 19.212736 -12.695012 116.921268 -2.363715 -0.000000 0.000000 0.000002 18.487302 3.228176 0.005655 0.000001 -0.000002 2.999988 -5.000224 7.999711 -0.000058 -9.102014 -178.749930 -0.334410 -179.999991 0.000005 -0.940997 166.714071 -1.780078 -1.068251 -0.000007 -0.000003 0.222207 70.729102 6.556072 2.914037 25.456919 -7.351623 -0.000004 -3.095541 176.163583 -4.245852 -0.000005 -0.000004 -1.018070 -14.043942 3.950270 1.164824 0.000001 0.000001 -0.264197 75.633765 -6.707427 -2.163689 26.969427 7.342623 -0.309751 
45.440701 7.091396 83.896500 2.214662 0.384584 -3.057092 -1.260213 0.054193 -0.000971 1.479203 0.115867 -0.009646 3.124276 0.115971 -0.011074 2.973402 -1.434577 -0.928563 2.660632 -3.343451 -0.289521 -5.638991 -64.505181 -7.079705 -22.845507 -113.856638 -15.006984 0.000000 0.000003 -0.000004 15.727443 -10.946040 0.876447 0.000008 0.000001 -3.000000 -5.000200 -7.998754 0.000163 -16.242316 60.031147 19.193690 -12.756539 116.938057 -2.278459 -0.000000 0.000000 -0.000002 18.529931 3.236260 0.003988 -0.000001 -0.000001 2.999991 -5.000221 7.999712 -0.000060 -9.141577 -178.766855 -0.340515 -179.999991 0.000005 -0.939999 166.657886 -1.785501 -1.070382 -0.000008 -0.000003 0.224186 70.756395 6.561447 2.898642 25.456921 -7.351623 -0.000005 -3.133409 176.174717 -4.209398 -0.000005 -0.000005 -1.017770 -14.101546 3.912859 1.164368 0.000002 0.000001 -0.267033 75.678885 -6.705169 -2.166919 26.938309 7.342643 -0.319986 
45.438400 7.097380 83.904701 2.224370 0.390070 -3.050931 -1.258222 0.053233 0.000366 1.482863 0.115982 -0.007876 3.127927 0.116083 -0.009295 2.945201 -1.439447 -0.931420 2.658861 -3.314566 -0.293672 -5.657280 -64.508787 -7.100996 -22.922395 -113.874997 -15.167560 0.000000 0.000003 -0.000005 15.787168 -10.995400 0.891386 0.000008 0.000001 -3.000000 -5.000202 -7.998753 0.000161 -16.228333 60.022172 19.177078 -12.819667 116.953999 -2.191584 -0.000000 -0.000000 -0.000002 18.572162 3.244451 0.002269 -0.000001 -0.000002 2.999990 -5.000223 7.999711 -0.000059 -9.181039 -178.783781 -0.347152 -179.999991 0.000005 -0.938989 166.602534 -1.789955 -1.072253 -0.000008 -0.000003 0.226122 70.783477 6.566487 2.884000 25.456919 -7.351622 -0.000005 -3.172144 176.185850 -4.173172 -0.000005 -0.000004 -1.017460 -14.159354 3.875846 1.163954 0.000001 0.000001 -0.269879 75.723370 -6.702920 -2.170189 26.908002 7.342668 -0.330246 
45.445099 7.098157 83.904411 2.234952 0.395303 -3.044627 -1.256351 0.052291 0.001630 1.486313 0.115980 -0.006210 3.131386 0.116076 -0.007619 2.915396 -1.443040 -0.933988 2.658635 -3.286388 -0.297657 -5.676105 -64.510563 -7.122735 -22.996820 -113.896205 -15.323301 0.000000 0.000003 -0.000003 15.845486 -11.042767 0.905874 0.000007 0.000001 -3.000000 -5.000201 -7.998753 0.000162 -16.216934 60.013819 19.163527 -12.884751 116.969134 -2.102484 0.000000 0.000000 0.000001 18.613695 3.252791 0.000511 0.000001 -0.000002 2.999987 -5.000224 7.999711 -0.000059 -9.220369 -178.800692 -0.354479 -179.999991 0.000005 -0.937991 166.548467 -1.793445 -1.073875 -0.000008 -0.000003 0.228004 70.810333 6.571134 2.870404 25.456923 -7.351622 -0.000005 -3.211990 176.196969 -4.137236 -0.000005 -0.000005 -1.017160 -14.217274 3.839350 1.163605 0.000002 0.000001 -0.272738 75.767029 -6.700773 -2.173223 26.878604 7.342714 -0.340505 
45.439301 7.097275 83.876099 2.246562 0.400230 -3.038151 -1.254612 0.051368 0.002807 1.489533 0.115836 -0.004670 3.134596 0.115928 -0.006069 2.883628 -1.445089 -0.936217 2.660293 -3.259081 -0.301439 -5.695542 -64.510017 -7.145001 -23.070605 -113.918417 -15.475713 -0.000000 0.000003 -0.000003 15.902168 -11.087677 0.919774 0.000006 0.000001 -3.000000 -5.000200 -7.998753 0.000162 -16.208746 60.006367 19.153777 -12.951657 116.984475 -2.011368 -0.000000 0.000000 -0.000000 18.654432 3.261301 -0.001321 0.000001 -0.000002 2.999990 -5.000223 7.999711 -0.000058 -9.259551 -178.817604 -0.362646 -179.999991 0.000005 -0.936994 166.495929 -1.795973 -1.076221 -0.000007 -0.000003 0.229819 70.836752 6.575385 2.857965 25.456923 -7.351623 -0.000004 -3.253188 176.208089 -4.101646 -0.000005 -0.000005 -1.016850 -14.275605 3.803462 1.163366 0.000001 0.000001 -0.275614 75.809636 -6.698717 -2.176134 26.850414 7.342747 -0.350775 
45.423698 7.100068 83.879509 2.259406 0.404796 -3.031461 -1.253049 0.050469 0.003882 1.492453 0.115524 -0.003279 3.137526 0.115611 -0.004666 2.849557 -1.445321 -0.938037 2.664163 -3.232779 -0.304992 -5.715711 -64.506731 -7.167887 -23.141205 -113.944419 -15.621522 0.000000 0.000003 -0.000004 15.956884 -11.129769 0.932972 0.000006 0.000001 -3.000002 -5.000203 -7.998754 0.000162 -16.204286 59.999879 19.148430 -13.021182 116.999091 -1.917434 -0.000000 0.000000 0.000000 18.694371 3.270021 -0.003234 0.000000 -0.000002 2.999989 -5.000222 7.999711 -0.000059 -9.298554 -178.833518 -0.371967 -179.999991 0.000005 -0.936994 166.445003 -1.796560 -1.078050 -0.000008 -0.000003 0.231556 70.862892 6.579078 2.846745 25.456926 -7.351622 -0.000004 -3.295979 176.219263 -4.066468 -0.000005 -0.000005 -1.016530 -14.334248 3.768310 1.163265 0.000001 0.000001 -0.278509 75.851095 -6.696746 -2.178827 26.823541 7.342797 -0.361053 
